<svg width="96" height="96" viewBox="0 0 96 96" fill="none" xmlns="http://www.w3.org/2000/svg">
<path d="M0 40C0 21.1438 0 11.7157 5.85786 5.85786C11.7157 0 21.1438 0 40 0H56C74.8562 0 84.2843 0 90.1421 5.85786C96 11.7157 96 21.1438 96 40V56C96 74.8562 96 84.2843 90.1421 90.1421C84.2843 96 74.8562 96 56 96H40C21.1438 96 11.7157 96 5.85786 90.1421C0 84.2843 0 74.8562 0 56V40Z" fill="#7B5499"/>
<path d="M40.8056 21.6H55.2056V28.8H62.4056C65.0456 28.8 67.2056 30.96 67.2056 33.6V44.688L70.2776 45.696C70.9016 45.888 71.4296 46.32 71.7176 46.896C72.0056 47.472 72.0536 48.144 71.8616 48.768L67.3256 64.8H67.2056C63.3656 64.8 59.9576 62.688 57.6056 60C55.2536 62.688 51.8456 64.8 48.0056 64.8C44.1656 64.8 40.7576 62.688 38.4056 60C36.0536 62.688 32.6456 64.8 28.8056 64.8H28.6856L24.1256 48.768C23.9096 48.144 23.9816 47.472 24.2696 46.896C24.5576 46.32 25.0856 45.888 25.7096 45.696L28.8056 44.688V33.6C28.8056 30.96 30.9656 28.8 33.6056 28.8H40.8056V21.6ZM50.4056 26.4H45.6056V28.8H50.4056V26.4ZM48.0056 43.464L35.0936 47.664L29.3336 49.56L32.0456 59.064C33.3416 58.344 34.3016 57.384 34.7816 56.832L38.4056 52.704L42.0296 56.832C42.8456 57.792 45.1016 60 48.0056 60C50.9096 60 53.1656 57.792 53.9816 56.832L57.6056 52.704L61.2296 56.856C61.7096 57.408 62.6696 58.392 63.9656 59.112L66.6536 49.584L60.9176 47.712L48.0056 43.464ZM33.6056 43.128L48.0056 38.4L62.4056 43.128V33.6H33.6056V43.128ZM48.0056 69.504C51.3416 69.504 54.6776 68.472 57.6056 66.432C60.5336 68.472 63.8696 69.6 67.2056 69.6H72.0056V74.4H67.2056C63.8936 74.4 60.6296 73.584 57.6056 72.024C54.5816 73.584 51.2936 74.352 48.0056 74.352C44.7176 74.352 41.4296 73.56 38.4056 72.024C35.3816 73.56 32.1176 74.4 28.8056 74.4H24.0056V69.6H28.8056C32.1416 69.6 35.4776 68.472 38.4056 66.432C41.3336 68.472 44.6696 69.504 48.0056 69.504Z" fill="white"/>
</svg>
