<svg width="20" height="20" viewBox="0 0 20 20" fill="none" xmlns="http://www.w3.org/2000/svg">
	<path d="M7.27572 0.00012207H12.7302V2.72738H15.4575C16.4575 2.72738 17.2757 3.54556 17.2757 4.54555V8.74552L18.4393 9.12734C18.6756 9.20007 18.8756 9.3637 18.9847 9.58188C19.0938 9.80006 19.112 10.0546 19.0393 10.291L17.3211 16.3637H17.2757C15.8211 16.3637 14.5302 15.5637 13.6393 14.5455C12.7484 15.5637 11.4575 16.3637 10.003 16.3637C8.54844 16.3637 7.25754 15.5637 6.36663 14.5455C5.47573 15.5637 4.18483 16.3637 2.73029 16.3637H2.68484L0.957576 10.291C0.875758 10.0546 0.903031 9.80006 1.01212 9.58188C1.12121 9.3637 1.32121 9.20007 1.55757 9.12734L2.73029 8.74552V4.54555C2.73029 3.54556 3.54847 2.72738 4.54846 2.72738H7.27572V0.00012207ZM10.9121 1.81829H9.09389V2.72738H10.9121V1.81829ZM10.003 8.28189L5.1121 9.87279L2.93029 10.591L3.95756 14.1909C4.44846 13.9182 4.8121 13.5546 4.99392 13.3455L6.36663 11.7819L7.73935 13.3455C8.04844 13.7091 8.90298 14.5455 10.003 14.5455C11.103 14.5455 11.9575 13.7091 12.2666 13.3455L13.6393 11.7819L15.012 13.3546C15.1939 13.5637 15.5575 13.9364 16.0484 14.2091L17.0666 10.6001L14.8939 9.89097L10.003 8.28189ZM4.54846 8.15462L10.003 6.36372L15.4575 8.15462V4.54555H4.54846V8.15462ZM10.003 18.1455C11.2666 18.1455 12.5302 17.7546 13.6393 16.9818C14.7484 17.7546 16.012 18.1818 17.2757 18.1818H19.0938V20H17.2757C16.0211 20 14.7848 19.6909 13.6393 19.1C12.4939 19.6909 11.2484 19.9818 10.003 19.9818C8.75753 19.9818 7.51208 19.6818 6.36663 19.1C5.22119 19.6818 3.98483 20 2.73029 20H0.912123V18.1818H2.73029C3.99392 18.1818 5.25755 17.7546 6.36663 16.9818C7.47572 17.7546 8.73935 18.1455 10.003 18.1455Z" fill="#A7AAAD"/>
</svg>
